name C:\Users\u0101727\Documents\MyRepositories\paper-ad\predictivesimulations_2d/Results/PredSim_2D/IK_c14.mot
datacolumns 11
datarows 51
range 1.27596399 1.75564971
endheader
time	pelvis_tilt	pelvis_tx	pelvis_ty	hip_flexion_l	hip_flexion_r	knee_angle_l	knee_angle_r	ankle_angle_l	ankle_angle_r	lumbar_extension	
          1.27596399	        -15.12050037	          1.69370503	          0.90061882	         33.21174051	         10.38787126	        -37.56477760	         -7.29109634	         15.70325872	         11.30702903	          9.44328296	
          1.28555771	        -15.11979857	          1.70569297	          0.89975971	         34.18021300	          9.61217458	        -36.09193015	         -7.33898719	         15.98891623	         11.31768981	          9.40342388	
          1.29515142	        -15.12017246	          1.71773647	          0.89884266	         35.08755427	          8.85412023	        -34.50244609	         -7.42259894	         16.19368041	         11.31607056	          9.36681892	
          1.30474514	        -15.12201367	          1.72984199	          0.89786655	         35.93027672	          8.11267116	        -32.80401403	         -7.54088678	         16.32666904	         11.30577124	          9.33377687	
          1.31433885	        -15.12564538	          1.74201767	          0.89683022	         36.70380865	          7.38746824	        -31.00813637	         -7.69412251	         16.39666169	         11.28762684	          9.30468340	
          1.32393257	        -15.13113754	          1.75427547	          0.89573631	         37.40146549	          6.67939783	        -29.14104133	         -7.88595201	         16.41179988	         11.26003768	          9.28012670	
          1.33352628	        -15.13851813	          1.76663364	          0.89459723	         38.01027927	          5.99050062	        -27.23691313	         -8.12263197	         16.37936811	         11.21696428	          9.26141086	
          1.34311999	        -15.14780805	          1.77911368	          0.89343467	         38.51445630	          5.32393429	        -25.32794539	         -8.41128787	         16.30575922	         11.14599859	          9.25025800	
          1.35271371	        -15.15868706	          1.79173438	          0.89227117	         38.90455377	          4.68412074	        -23.44199861	         -8.76042210	         16.19636069	         11.03085680	          9.24785581	
          1.36230742	        -15.17035936	          1.80451035	          0.89112472	         39.18044338	          4.07631458	        -21.60094810	         -9.17987970	         16.05529793	         10.85501058	          9.25461051	
          1.37190114	        -15.18161395	          1.81745440	          0.89000960	         39.34904260	          3.50578933	        -19.82639492	         -9.67994688	         15.88517019	         10.60419042	          9.27044805	
          1.38149485	        -15.19123070	          1.83058041	          0.88893799	         39.41756488	          2.97743773	        -18.13313626	        -10.27031772	         15.68717006	         10.26554612	          9.29545891	
          1.39108857	        -15.19806696	          1.84390283	          0.88791907	         39.39282715	          2.49569453	        -16.53294345	        -10.95956041	         15.46119165	          9.82692130	          9.32988247	
          1.40068228	        -15.20086882	          1.85743586	          0.88695811	         39.28242463	          2.06517407	        -15.04286199	        -11.75666878	         15.20595014	          9.27746367	          9.37385807	
          1.41027599	        -15.19837331	          1.87119390	          0.88605617	         39.09139641	          1.69139464	        -13.67743691	        -12.67193003	         14.91942952	          8.60619729	          9.42767808	
          1.41986971	        -15.18917633	          1.88519055	          0.88520895	         38.82452300	          1.38026566	        -12.45655766	        -13.71627216	         14.59874950	          7.80268307	          9.49159475	
          1.42946342	        -15.17172127	          1.89943754	          0.88440533	         38.48716519	          1.13744758	        -11.40902009	        -14.89990458	         14.24010890	          6.85941128	          9.56575835	
          1.43905714	        -15.14456648	          1.91394599	          0.88362618	         38.07965448	          0.96772995	        -10.56569636	        -16.23211893	         13.83914255	          5.77639771	          9.65075832	
          1.44865085	        -15.10652051	          1.92872415	          0.88284000	         37.59494867	          0.87403221	         -9.96024880	        -17.72588488	         13.39086131	          4.57599430	          9.74765592	
          1.45824456	        -15.05742782	          1.94376575	          0.88200292	         37.01506370	          0.85907940	         -9.64083232	        -19.38714621	         12.89046237	          3.27174486	          9.85759427	
          1.46783828	        -14.99984686	          1.95905374	          0.88113834	         36.27193189	          0.93010830	         -9.72801099	        -21.21277801	         12.33587480	          1.84363933	          9.98454802	
          1.47743199	        -14.94199003	          1.97440224	          0.88037320	         35.40870476	          1.09175487	        -10.04209546	        -23.18419666	         11.76643812	          0.37703328	         10.11908996	
          1.48702571	        -14.89483096	          1.98947053	          0.87993701	         34.55057128	          1.37087197	        -10.32213389	        -25.20896755	         11.21610219	         -0.90652234	         10.23797443	
          1.49661942	        -14.86693200	          2.00401149	          0.88009148	         33.73477996	          1.79572612	        -10.58026144	        -27.14687924	         10.68475158	         -1.90900700	         10.32728533	
          1.50621314	        -14.86063526	          2.01796213	          0.88099237	         32.96378707	          2.36222574	        -10.81135203	        -28.93530218	         10.18704857	         -2.65979077	         10.38588211	
          1.51580685	        -14.87125108	          2.03140573	          0.88259885	         32.21906622	          3.05358804	        -11.00341824	        -30.59495241	          9.73928402	         -3.16830879	         10.41990864	
          1.52540056	        -14.89218561	          2.04446651	          0.88470113	         31.47949888	          3.84926685	        -11.14753942	        -32.15494320	          9.35295109	         -3.44730692	         10.43638960	
          1.53499428	        -14.91807359	          2.05725199	          0.88706659	         30.72827702	          4.73369966	        -11.23689918	        -33.63285880	          9.03432259	         -3.51235133	         10.44063827	
          1.54458799	        -14.94547719	          2.06983638	          0.88951253	         29.95595825	          5.69486005	        -11.26958546	        -35.03715682	          8.78501182	         -3.37846467	         10.43585053	
          1.55418171	        -14.97250301	          2.08226668	          0.89191535	         29.15801953	          6.72374288	        -11.24603945	        -36.36915467	          8.60399617	         -3.06194104	         10.42378407	
          1.56377542	        -14.99818904	          2.09457294	          0.89419581	         28.33291187	          7.81294396	        -11.16826351	        -37.62575482	          8.48863711	         -2.57951666	         10.40544832	
          1.57336914	        -15.02204529	          2.10677547	          0.89630353	         27.48100769	          8.95628478	        -11.03973804	        -38.80207713	          8.43519891	         -1.94805775	         10.38145808	
          1.58296285	        -15.04380446	          2.11888935	          0.89820608	         26.60395703	         10.14821646	        -10.86530824	        -39.89203268	          8.43914229	         -1.18451236	         10.35226455	
          1.59255656	        -15.06329602	          2.13092699	          0.89988249	         25.70435345	         11.38337978	        -10.65100845	        -40.88885240	          8.49532521	         -0.30604863	         10.31827595	
          1.60215028	        -15.08039614	          2.14289929	          0.90132012	         24.78550540	         12.65636000	        -10.40385902	        -41.78534913	          8.59817004	          0.66994265	         10.27990765	
          1.61174399	        -15.09501691	          2.15481575	          0.90251410	         23.85138307	         13.96178212	        -10.13186736	        -42.57393463	          8.74186114	          1.72589273	         10.23755215	
          1.62133771	        -15.10714281	          2.16668398	          0.90346769	         22.90642033	         15.29464236	         -9.84284491	        -43.24645188	          8.92053083	          2.84413284	         10.19152790	
          1.63093142	        -15.11689671	          2.17851127	          0.90419148	         21.95452426	         16.64896698	         -9.54385622	        -43.79539229	          9.12768695	          4.00685451	         10.14230959	
          1.64052514	        -15.12444209	          2.19030392	          0.90470241	         20.99985567	         18.01890445	         -9.24247064	        -44.21309203	          9.35565278	          5.19621498	         10.09033053	
          1.65011885	        -15.12992041	          2.20206742	          0.90502125	         20.04698171	         19.39900374	         -8.94650234	        -44.49168345	          9.59638412	          6.39440142	         10.03592926	
          1.65971256	        -15.13347690	          2.21380780	          0.90516940	         19.10070389	         20.78273755	         -8.66434953	        -44.62426052	          9.84192490	          7.58361765	          9.97948877	
          1.66930628	        -15.13533017	          2.22553211	          0.90516711	         18.16428033	         22.16320964	         -8.40165482	        -44.60517712	         10.08493575	          8.74619241	          9.92153778	
          1.67889999	        -15.13579674	          2.23724870	          0.90503248	         17.23851610	         23.53350086	         -8.15973069	        -44.43040555	         10.31876761	          9.86475479	          9.86282256	
          1.68849371	        -15.13515939	          2.24896631	          0.90478105	         16.32481485	         24.88578198	         -7.94133411	        -44.09785719	         10.53662563	         10.92256960	          9.80407241	
          1.69808742	        -15.13366220	          2.26069316	          0.90442591	         15.42534226	         26.21206651	         -7.75008544	        -43.60661845	         10.73241207	         11.90419102	          9.74590819	
          1.70768114	        -15.13154665	          2.27243838	          0.90397775	         14.54166232	         27.50348666	         -7.58904454	        -42.95980986	         10.90147355	         12.79621497	          9.68907245	
          1.71727485	        -15.12907032	          2.28421038	          0.90344570	         13.67470894	         28.75208405	         -7.46022082	        -42.16191033	         11.04084302	         13.58841206	          9.63425132	
          1.72686856	        -15.12649670	          2.29601580	          0.90283786	         12.82534491	         29.95163972	         -7.36471082	        -41.21730244	         11.14936645	         14.27469667	          9.58193448	
          1.73646228	        -15.12406460	          2.30786093	          0.90216078	         11.99427526	         31.09647433	         -7.30416446	        -40.13266200	         11.22775667	         14.85347209	          9.53256102	
          1.74605599	        -15.12199528	          2.31975014	          0.90141984	         11.18182136	         32.18363021	         -7.27949248	        -38.91348663	         11.27882470	         15.32756659	          9.48632161	
          1.75564971	        -15.12050037	          2.33168703	          0.90061882	         10.38787126	         33.21174051	         -7.29109634	        -37.56477760	         11.30702903	         15.70325872	          9.44328296	
